<?xml version="1.0" encoding="utf-8"?>
<!-- Generator: Adobe Illustrator 28.3.0, SVG Export Plug-In . SVG Version: 6.00 Build 0)  -->
<svg version="1.1" id="Layer_1" xmlns="http://www.w3.org/2000/svg" xmlns:xlink="http://www.w3.org/1999/xlink" x="0px" y="0px"
	 viewBox="0 0 832.2 832" style="enable-background:new 0 0 832.2 832;" xml:space="preserve">
<path d="M9.5,416c0,108.3,42.2,210.3,118.8,287.1c76.4,76.6,178.2,119,286.5,119.4h1.4c224.1,0,406.5-182.4,406.5-406.5
	C822.7,191.9,640.3,9.5,416,9.5h-1.4C306.5,9.9,204.7,52.3,128.1,128.9C51.6,205.8,9.5,307.8,9.5,416z M669.5,687
	c-38,35.3-83.8,62.9-132.4,79.8l-28.1,9.8l17.3-24.3c20.4-28.6,37.8-64.4,51.7-106.5l3-8.9l9,2.9c26,8.4,52,19.1,77.3,31.7l12.3,6.1
	L669.5,687z M785.9,444.7c-5.5,72.9-32.3,141.8-77.4,199.3l-4.9,6.3l-7-3.7c-31.3-16.6-64.2-30.5-97.9-41.3l-8.3-2.7l2-8.5
	c11.1-47.3,17.6-97.8,19.4-150.4l0.3-9.2h174.6L785.9,444.7z M703.6,181.5l4.9,6.3c45.1,57.8,71.9,126.8,77.4,199.5l0.8,10.2H612
	l-0.3-9.2c-1.8-52.4-8.3-103.1-19.4-150.6l-2-8.5l8.3-2.7c33.7-10.8,66.6-24.7,97.9-41.3L703.6,181.5z M536.9,65.2
	c49.3,17,93.8,44,132.4,80l10,9.4l-12.3,6.1c-25.2,12.5-51.2,23.1-77.3,31.5l-9,2.9l-3-8.9c-14-42.1-31.4-77.9-51.7-106.5
	l-17.2-24.2L536.9,65.2z M434.5,46.9l14,7.6c36.5,19.7,70.9,70.8,94.5,140.1l3.4,10.1l-10.4,2.3c-29.7,6.5-60.5,10.6-91.5,12.2
	l-10,0.5V46.9z M434.5,254.9l9.1-0.4c34.4-1.5,69.2-6.2,103.4-13.8l9.2-2l2.1,9.2c10.2,43.8,16.2,90.9,17.8,139.9l0.3,9.8H434.5
	V254.9z M434.5,434.5h141.9l-0.3,9.8c-1.6,49.1-7.6,96.1-17.8,139.7l-2.2,9.2l-9.2-2.1c-33.3-7.5-68-12.2-103.3-13.8l-9.1-0.4V434.5
	z M434.5,612.2l10,0.5c31,1.6,61.8,5.7,91.5,12.2l10.4,2.3l-3.4,10.1c-23.6,69.4-58,120.6-94.5,140.3l-14,7.6V612.2z M128.2,650.1
	l-4.9-6.3c-45-57.7-71.7-126.6-77.2-199.1l-0.8-10.2h173.4l0.3,9.2c1.8,52.7,8.3,103.3,19.4,150.6l2,8.5l-8.3,2.7
	c-33,10.7-65.6,24.5-96.9,41L128.2,650.1z M293.6,766.4c-49.1-17.4-93.2-44.2-131.1-79.6l-10-9.4l12.3-6.1
	c25-12.4,50.8-22.9,76.5-31.3l9-2.9l3,9c13.9,41.7,31.2,77.3,51.3,105.9l17.2,24.4L293.6,766.4z M397.5,785.8l-13.9-7.4
	C346.9,759,312,707.7,288,637.7l-3.5-10.1l10.4-2.3c29.7-6.6,60.8-10.8,92.6-12.4l10-0.5V785.8z M397.5,576.9l-9.1,0.4
	c-34.8,1.6-70,6.3-104.3,14l-9.2,2.1l-2.1-9.2c-10.2-43.8-16.2-90.9-17.8-139.8l-0.3-9.8h142.9V576.9z M397.5,397.5H254.6l0.3-9.8
	c1.6-49.1,7.6-96.2,17.8-140.1l2.1-9.2l9.2,2.1c34.4,7.7,69.6,12.4,104.3,14l9.1,0.4V397.5z M383.5,53.6l14-7.4v173.2l-10-0.5
	c-31.7-1.6-62.8-5.8-92.6-12.4l-10.4-2.3l3.5-10.1C311.9,124.4,346.8,73.2,383.5,53.6z M162.7,145.3c38.1-35.8,82.2-62.6,131-79.5
	l28-9.7l-17.2,24.2c-20,28.2-37.3,63.7-51.3,105.7l-3,9l-9-2.9c-25.7-8.4-51.4-19-76.3-31.3l-12.2-6.1L162.7,145.3z M135.5,185.4
	c31.3,16.6,63.9,30.4,96.8,40.9l8.4,2.7l-2,8.6c-11.3,47.2-17.8,97.8-19.3,150.5l-0.3,9.2H45.6l0.7-10.2
	c5.3-72.4,32-141.2,77.2-199.1l4.9-6.3L135.5,185.4z"/>
</svg>
